<?xml version="1.0" encoding="UTF-8"?>
<svg width="606px" height="116px" viewBox="0 0 606 116" version="1.1" xmlns="http://www.w3.org/2000/svg" xmlns:xlink="http://www.w3.org/1999/xlink">
    <!-- Generator: Sketch 51.3 (57544) - http://www.bohemiancoding.com/sketch -->
    <title>Buy-Button</title>
    <desc>Created with Sketch.</desc>
    <defs></defs>
    <g id="Wazz" stroke="none" stroke-width="1" fill="none" fill-rule="evenodd">
        <g id="Home-screen-Final" transform="translate(-309.000000, -610.000000)">
            <g id="Buy-Button" transform="translate(309.000000, 610.000000)">
                <path d="M55.9523637,62.8076172 L54.9855669,69.6289062 L44.2433794,69.6289062 L45.2101762,62.8076172 L38.8185747,66.2182617 L34.7633989,56.9262695 L41.1550004,53.515625 L35.7033403,50.1049805 L42.390352,40.8129883 L47.8151567,44.2236328 L48.7819536,37.4023438 L59.5241411,37.4023438 L58.5573442,44.2236328 L64.9489458,40.8129883 L69.0041215,50.1049805 L62.61252,53.515625 L68.0641801,56.9262695 L61.3771684,66.2182617 L55.9523637,62.8076172 Z M87.5928805,50.8300781 L103.706162,50.8300781 L104.108994,48.1445312 L87.9957125,48.1445312 L87.5928805,50.8300781 Z M87.5928805,50.8300781 L84.2090914,75 L73.4669039,75 L78.7574313,37.4023438 L116.355088,37.4023438 L112.944443,61.5722656 L91.460068,61.5722656 L87.5928805,50.8300781 Z M148.586425,56.2011719 L164.753417,75 L149.553221,75 L133.386229,56.2011719 L142.597655,48.1445312 L134.084471,48.1445312 L130.29785,75 L119.555663,75 L124.84619,37.4023438 L170.043944,37.4023438 L148.586425,56.2011719 Z M208.532605,37.4023438 L207.028699,48.1445312 L180.17323,48.1445312 L179.770398,50.8300781 L206.625867,50.8300781 L199.750867,61.5722656 L178.266492,61.5722656 L177.890516,64.2578125 L204.745984,64.2578125 L203.242078,75 L165.644422,75 L170.934949,37.4023438 L208.532605,37.4023438 Z M254.621364,37.4023438 L253.117458,48.1445312 L233.862087,48.1445312 L256.930935,75 L211.733181,75 L213.237087,64.2578125 L232.492458,64.2578125 L209.42361,37.4023438 L254.621364,37.4023438 Z M300.710123,37.4023438 L299.206217,48.1445312 L279.950846,48.1445312 L303.019694,75 L257.82194,75 L259.325846,64.2578125 L278.581217,64.2578125 L255.512369,37.4023438 L300.710123,37.4023438 Z M366.247016,37.4023438 L364.74311,48.1445312 L351.315376,48.1445312 L346.776801,80.3710938 L336.786567,75 L340.573188,48.1445312 L327.145454,48.1445312 L328.64936,37.4023438 L366.247016,37.4023438 Z M400.089681,48.1445312 L383.9764,48.1445312 L381.693685,64.2578125 L397.806967,64.2578125 L400.089681,48.1445312 Z M412.335775,37.4023438 L407.045248,75 L369.447592,75 L374.738119,37.4023438 L412.335775,37.4023438 Z M464.015246,56.2011719 L480.182238,75 L434.984484,75 L440.275012,37.4023438 L485.472766,37.4023438 L464.015246,56.2011719 Z M448.815051,56.2011719 L458.026477,48.1445312 L449.513293,48.1445312 L447.230578,64.2578125 L455.743762,64.2578125 L448.815051,56.2011719 Z M486.363771,37.4023438 L497.105958,37.4023438 L493.319337,64.2578125 L509.432618,64.2578125 L513.219239,37.4023438 L523.961427,37.4023438 L518.6709,75 L481.073243,75 L486.363771,37.4023438 Z M542.926162,58.4301758 L524.852432,37.4023438 L540.052627,37.4023438 L549.666885,48.6010742 L562.450088,37.4023438 L577.650284,37.4023438 L553.66835,58.4301758 L551.331924,75 L540.589737,75 L542.926162,58.4301758 Z" id="*press-to-buy" fill="#E40426"></path>
                <rect id="Rectangle-2" stroke="#FFFFFF" stroke-width="10" fill-rule="nonzero" x="5" y="5" width="596" height="106"></rect>
            </g>
        </g>
    </g>
</svg>