<?xml version="1.0" encoding="UTF-8"?>
<svg width="732px" height="105px" viewBox="0 0 732 105" version="1.1" xmlns="http://www.w3.org/2000/svg" xmlns:xlink="http://www.w3.org/1999/xlink">
    <!-- Generator: Sketch 51.3 (57544) - http://www.bohemiancoding.com/sketch -->
    <title>buy-button</title>
    <desc>Created with Sketch.</desc>
    <defs></defs>
    <g id="Wazz" stroke="none" stroke-width="1" fill="none" fill-rule="evenodd">
        <g id="Home-screen-Copy-2" transform="translate(-538.000000, -654.000000)">
            <g id="buy-button" transform="translate(416.000000, 654.000000)">
                <path d="M188.912187,60.1328125 L188.209062,65.09375 L180.396562,65.09375 L181.099687,60.1328125 L176.451249,62.6132812 L173.50203,55.8554688 L178.150468,53.375 L174.185624,50.8945312 L179.048905,44.1367188 L182.994218,46.6171875 L183.697343,41.65625 L191.509843,41.65625 L190.806718,46.6171875 L195.455155,44.1367188 L198.404374,50.8945312 L193.755937,53.375 L197.72078,55.8554688 L192.857499,62.6132812 L188.912187,60.1328125 Z M238.464999,51.421875 L250.183749,51.421875 L250.476718,49.46875 L238.757968,49.46875 L238.464999,51.421875 Z M238.464999,51.421875 L236.004062,69 L228.191562,69 L232.039218,41.65625 L259.382968,41.65625 L256.902499,59.234375 L241.277499,59.234375 L238.464999,51.421875 Z M282.241718,55.328125 L293.999531,69 L282.944843,69 L271.187031,55.328125 L277.886249,49.46875 L271.694843,49.46875 L268.940937,69 L261.128437,69 L264.976093,41.65625 L297.847187,41.65625 L282.241718,55.328125 Z M325.256718,41.65625 L324.162968,49.46875 L304.631718,49.46875 L304.33875,51.421875 L323.87,51.421875 L318.87,59.234375 L303.245,59.234375 L302.971562,61.1875 L322.502812,61.1875 L321.409062,69 L294.065312,69 L297.912968,41.65625 L325.256718,41.65625 Z M358.193593,41.65625 L357.099843,49.46875 L343.095937,49.46875 L359.873281,69 L327.002187,69 L328.095937,61.1875 L342.099843,61.1875 L325.3225,41.65625 L358.193593,41.65625 Z M391.130468,41.65625 L390.036718,49.46875 L376.032812,49.46875 L392.810156,69 L359.939062,69 L361.032812,61.1875 L375.036718,61.1875 L358.259375,41.65625 L391.130468,41.65625 Z M437.629219,41.65625 L436.535469,49.46875 L426.769844,49.46875 L423.469062,72.90625 L416.203437,69 L418.957344,49.46875 L409.191719,49.46875 L410.285469,41.65625 L437.629219,41.65625 Z M461.659844,49.46875 L449.941094,49.46875 L448.280938,61.1875 L459.999688,61.1875 L461.659844,49.46875 Z M470.566094,41.65625 L466.718438,69 L439.374688,69 L443.222344,41.65625 L470.566094,41.65625 Z M496.146875,51.421875 L507.865625,51.421875 L508.158594,49.46875 L496.439844,49.46875 L496.146875,51.421875 Z M496.146875,51.421875 L493.685938,69 L485.873438,69 L489.721094,41.65625 L517.064844,41.65625 L514.584375,59.234375 L498.959375,59.234375 L496.146875,51.421875 Z M522.657969,41.65625 L530.470469,41.65625 L527.716563,61.1875 L539.435313,61.1875 L542.189219,41.65625 L550.001719,41.65625 L546.154063,69 L518.810313,69 L522.657969,41.65625 Z M572.860469,55.328125 L584.618282,69 L573.563594,69 L561.805782,55.328125 L568.505,49.46875 L562.313594,49.46875 L559.559688,69 L551.747188,69 L555.594844,41.65625 L588.465938,41.65625 L572.860469,55.328125 Z M615.875469,41.65625 L614.781719,49.46875 L595.250469,49.46875 L593.590313,61.1875 L613.121563,61.1875 L612.027813,69 L584.684063,69 L588.531719,41.65625 L615.875469,41.65625 Z M626.800626,59.234375 L625.433438,69 L617.620938,69 L621.468594,41.65625 L629.281094,41.65625 L627.894376,51.421875 L639.613126,51.421875 L640.999844,41.65625 L648.812344,41.65625 L644.417813,72.90625 L637.152188,69 L638.519376,59.234375 L626.800626,59.234375 Z M660.010938,57.28125 L671.729688,57.28125 L672.100782,54.6640625 L667.06172,48.8046875 L660.382032,54.6640625 L660.010938,57.28125 Z M660.010938,57.28125 L658.370313,69 L650.557813,69 L653.018751,51.421875 L668.62422,37.75 L680.362501,51.421875 L677.901563,69 L670.089063,69 L670.635938,65.09375 L662.823438,65.09375 L660.010938,57.28125 Z M714.686095,41.65625 L713.592345,49.46875 L699.588438,49.46875 L716.365782,69 L683.494688,69 L684.588438,61.1875 L698.592345,61.1875 L681.815001,41.65625 L714.686095,41.65625 Z M747.62297,41.65625 L746.52922,49.46875 L726.99797,49.46875 L726.705001,51.421875 L746.236251,51.421875 L741.236251,59.234375 L725.611251,59.234375 L725.337813,61.1875 L744.869063,61.1875 L743.775313,69 L716.431563,69 L720.27922,41.65625 L747.62297,41.65625 Z M782.447188,60.1328125 L781.744063,65.09375 L773.931563,65.09375 L774.634688,60.1328125 L769.986251,62.6132812 L767.037032,55.8554688 L771.68547,53.375 L767.720626,50.8945312 L772.583907,44.1367188 L776.52922,46.6171875 L777.232345,41.65625 L785.044845,41.65625 L784.34172,46.6171875 L788.990157,44.1367188 L791.939376,50.8945312 L787.290938,53.375 L791.255782,55.8554688 L786.392501,62.6132812 L782.447188,60.1328125 Z" id="*-press-to-purchase" fill="#FF0027"></path>
                <rect id="Rectangle-2" stroke="#FF0027" stroke-width="10" fill-rule="nonzero" x="127" y="5" width="722" height="95"></rect>
            </g>
        </g>
    </g>
</svg>