<?xml version="1.0" encoding="UTF-8"?>
<svg width="578px" height="136px" viewBox="0 0 578 136" version="1.1" xmlns="http://www.w3.org/2000/svg" xmlns:xlink="http://www.w3.org/1999/xlink">
    <!-- Generator: Sketch 51.3 (57544) - http://www.bohemiancoding.com/sketch -->
    <title>Opening fucking soon</title>
    <desc>Created with Sketch.</desc>
    <defs></defs>
    <g id="Wazz" stroke="none" stroke-width="1" fill="none" fill-rule="evenodd">
        <g id="Coming-soon" transform="translate(-430.000000, -354.000000)" fill="#FFFFFF">
            <path d="M584.574304,375.75 L565.824304,375.75 L563.168054,394.5 L581.918054,394.5 L584.574304,375.75 Z M598.824304,363.25 L592.668054,407 L548.918054,407 L555.074304,363.25 L598.824304,363.25 Z M618.98611,378.875 L637.73611,378.875 L638.20486,375.75 L619.45486,375.75 L618.98611,378.875 Z M618.98611,378.875 L615.04861,407 L602.54861,407 L608.70486,363.25 L652.45486,363.25 L648.48611,391.375 L623.48611,391.375 L618.98611,378.875 Z M706.085416,363.25 L704.335416,375.75 L673.085416,375.75 L672.616666,378.875 L703.866666,378.875 L695.866666,391.375 L670.866666,391.375 L670.429166,394.5 L701.679166,394.5 L699.929166,407 L656.179166,407 L662.335416,363.25 L706.085416,363.25 Z M725.465972,384.59375 L722.309722,407 L709.809722,407 L717.215972,354.40625 L744.059722,385.65625 L747.215972,363.25 L759.715972,363.25 L752.309722,415.84375 L725.465972,384.59375 Z M775.940278,407 L763.440278,407 L769.596528,363.25 L782.096528,363.25 L775.940278,407 Z M801.477084,384.59375 L798.320834,407 L785.820834,407 L793.227084,354.40625 L820.070834,385.65625 L823.227084,363.25 L835.727084,363.25 L828.320834,415.84375 L801.477084,384.59375 Z M889.35764,363.25 L887.60764,375.75 L856.35764,375.75 L855.88889,378.875 L887.13889,378.875 L883.20139,407 L839.45139,407 L845.60764,363.25 L889.35764,363.25 Z M855.88889,378.875 L853.70139,394.5 L872.45139,394.5 L872.88889,391.375 L860.38889,391.375 L855.88889,378.875 Z M480.247914,437.25 L478.497914,449.75 L447.247914,449.75 L446.779164,452.875 L478.029164,452.875 L470.029164,465.375 L445.029164,465.375 L442.841664,481 L430.341664,481 L436.497914,437.25 L480.247914,437.25 Z M490.12847,437.25 L502.62847,437.25 L498.22222,468.5 L516.97222,468.5 L521.37847,437.25 L533.87847,437.25 L527.72222,481 L483.97222,481 L490.12847,437.25 Z M587.509026,437.25 L585.759026,449.75 L554.509026,449.75 L551.852776,468.5 L583.102776,468.5 L581.352776,481 L537.602776,481 L543.759026,437.25 L587.509026,437.25 Z M632.295832,437.25 L649.983332,437.25 L625.014582,459.125 L643.827082,481 L626.139582,481 L607.327082,459.125 L632.295832,437.25 Z M603.733332,481 L591.233332,481 L597.389582,437.25 L609.889582,437.25 L603.733332,481 Z M657.363888,481 L644.863888,481 L651.020138,437.25 L663.520138,437.25 L657.363888,481 Z M682.900694,458.59375 L679.744444,481 L667.244444,481 L674.650694,428.40625 L701.494444,459.65625 L704.650694,437.25 L717.150694,437.25 L709.744444,489.84375 L682.900694,458.59375 Z M770.78125,437.25 L769.03125,449.75 L737.78125,449.75 L737.3125,452.875 L768.5625,452.875 L764.625,481 L720.875,481 L727.03125,437.25 L770.78125,437.25 Z M737.3125,452.875 L735.125,468.5 L753.875,468.5 L754.3125,465.375 L741.8125,465.375 L737.3125,452.875 Z M847.042362,437.25 L845.292362,449.75 L822.886112,449.75 L849.729862,481 L797.136112,481 L798.886112,468.5 L821.292362,468.5 L794.448612,437.25 L847.042362,437.25 Z M886.422918,449.75 L867.672918,449.75 L865.016668,468.5 L883.766668,468.5 L886.422918,449.75 Z M900.672918,437.25 L894.516668,481 L850.766668,481 L856.922918,437.25 L900.672918,437.25 Z M940.053474,449.75 L921.303474,449.75 L918.647224,468.5 L937.397224,468.5 L940.053474,449.75 Z M954.303474,437.25 L948.147224,481 L904.397224,481 L910.553474,437.25 L954.303474,437.25 Z M973.68403,458.59375 L970.52778,481 L958.02778,481 L965.43403,428.40625 L992.27778,459.65625 L995.43403,437.25 L1007.93403,437.25 L1000.52778,489.84375 L973.68403,458.59375 Z" id="Opening-fucking-soon"></path>
        </g>
    </g>
</svg>