<?xml version="1.0" encoding="UTF-8"?>
<svg width="440px" height="44px" viewBox="0 0 440 44" version="1.1" xmlns="http://www.w3.org/2000/svg" xmlns:xlink="http://www.w3.org/1999/xlink">
    <!-- Generator: Sketch 51.3 (57544) - http://www.bohemiancoding.com/sketch -->
    <title>fuck you !</title>
    <desc>Created with Sketch.</desc>
    <defs></defs>
    <g id="Wazz" stroke="none" stroke-width="1" fill="none" fill-rule="evenodd">
        <g id="Home-screen-Final" transform="translate(-966.000000, -622.000000)" fill="#FFFFFF">
            <path d="M1015.87847,622.25 L1014.12847,634.75 L982.87847,634.75 L982.40972,637.875 L1013.65972,637.875 L1005.65972,650.375 L980.65972,650.375 L978.47222,666 L965.97222,666 L972.12847,622.25 L1015.87847,622.25 Z M1025.75903,622.25 L1038.25903,622.25 L1033.85278,653.5 L1052.60278,653.5 L1057.00903,622.25 L1069.50903,622.25 L1063.35278,666 L1019.60278,666 L1025.75903,622.25 Z M1123.13958,622.25 L1121.38958,634.75 L1090.13958,634.75 L1087.48333,653.5 L1118.73333,653.5 L1116.98333,666 L1073.23333,666 L1079.38958,622.25 L1123.13958,622.25 Z M1167.92639,622.25 L1185.61389,622.25 L1160.64514,644.125 L1179.45764,666 L1161.77014,666 L1142.95764,644.125 L1167.92639,622.25 Z M1139.36389,666 L1126.86389,666 L1133.02014,622.25 L1145.52014,622.25 L1139.36389,666 Z M1221.46875,646.71875 L1200.4375,622.25 L1218.125,622.25 L1229.3125,635.28125 L1244.1875,622.25 L1261.875,622.25 L1233.96875,646.71875 L1231.25,666 L1218.75,666 L1221.46875,646.71875 Z M1292.41181,634.75 L1273.66181,634.75 L1271.00556,653.5 L1289.75556,653.5 L1292.41181,634.75 Z M1306.66181,622.25 L1300.50556,666 L1256.75556,666 L1262.91181,622.25 L1306.66181,622.25 Z M1316.54236,622.25 L1329.04236,622.25 L1324.63611,653.5 L1343.38611,653.5 L1347.79236,622.25 L1360.29236,622.25 L1354.13611,666 L1310.38611,666 L1316.54236,622.25 Z M1400.89722,653.5 L1399.14722,666 L1386.64722,666 L1388.39722,653.5 L1400.89722,653.5 Z M1401.33472,650.375 L1388.83472,650.375 L1392.80347,622.25 L1405.30347,622.25 L1401.33472,650.375 Z" id="fuck-you-!"></path>
        </g>
    </g>
</svg>