<?xml version="1.0" encoding="UTF-8"?>
<svg width="389px" height="57px" viewBox="0 0 389 57" version="1.1" xmlns="http://www.w3.org/2000/svg" xmlns:xlink="http://www.w3.org/1999/xlink">
    <!-- Generator: Sketch 51.3 (57544) - http://www.bohemiancoding.com/sketch -->
    <title>S.K.A tee</title>
    <desc>Created with Sketch.</desc>
    <defs></defs>
    <g id="Wazz" stroke="none" stroke-width="1" fill="none" fill-rule="evenodd">
        <g id="Product-Detail" transform="translate(-833.000000, -245.000000)" fill="#FFFFFF">
            <path d="M886.318748,251.25 L884.568748,263.75 L862.162498,263.75 L889.006248,295 L836.412498,295 L838.162498,282.5 L860.568748,282.5 L833.724998,251.25 L886.318748,251.25 Z M904.293054,282.5 L902.543054,295 L890.043054,295 L891.793054,282.5 L904.293054,282.5 Z M953.48611,251.25 L971.17361,251.25 L946.20486,273.125 L965.01736,295 L947.32986,295 L928.51736,273.125 L953.48611,251.25 Z M924.92361,295 L912.42361,295 L918.57986,251.25 L931.07986,251.25 L924.92361,295 Z M980.304166,282.5 L978.554166,295 L966.054166,295 L967.804166,282.5 L980.304166,282.5 Z M1003.55972,276.25 L1022.30972,276.25 L1022.90347,272.0625 L1014.84097,262.6875 L1004.15347,272.0625 L1003.55972,276.25 Z M1003.55972,276.25 L1000.93472,295 L988.434722,295 L992.372222,266.875 L1017.34097,245 L1036.12222,266.875 L1032.18472,295 L1019.68472,295 L1020.55972,288.75 L1008.05972,288.75 L1003.55972,276.25 Z M1114.60208,251.25 L1112.85208,263.75 L1097.22708,263.75 L1091.94583,301.25 L1080.32083,295 L1084.72708,263.75 L1069.10208,263.75 L1070.85208,251.25 L1114.60208,251.25 Z M1168.23264,251.25 L1166.48264,263.75 L1135.23264,263.75 L1134.76389,266.875 L1166.01389,266.875 L1158.01389,279.375 L1133.01389,279.375 L1132.57639,282.5 L1163.82639,282.5 L1162.07639,295 L1118.32639,295 L1124.48264,251.25 L1168.23264,251.25 Z M1221.8632,251.25 L1220.1132,263.75 L1188.8632,263.75 L1188.39445,266.875 L1219.64445,266.875 L1211.64445,279.375 L1186.64445,279.375 L1186.20695,282.5 L1217.45695,282.5 L1215.70695,295 L1171.95695,295 L1178.1132,251.25 L1221.8632,251.25 Z" id="S.K.A-tee"></path>
        </g>
    </g>
</svg>