<?xml version="1.0" encoding="UTF-8"?>
<svg width="79px" height="68px" viewBox="0 0 79 68" version="1.1" xmlns="http://www.w3.org/2000/svg" xmlns:xlink="http://www.w3.org/1999/xlink">
    <!-- Generator: Sketch 51.3 (57544) - http://www.bohemiancoding.com/sketch -->
    <title>Butterfly</title>
    <desc>Created with Sketch.</desc>
    <defs>
        <polygon id="path-1" points="0 0.488972746 37.2729147 0.488972746 37.2729147 67.8122825 0 67.8122825"></polygon>
        <polygon id="path-3" points="0.219411321 0.488972746 37.1858521 0.488972746 37.1858521 67.8110789 0.219411321 67.8110789"></polygon>
    </defs>
    <g id="Symbols" stroke="none" stroke-width="1" fill="none" fill-rule="evenodd">
        <g id="Logo-Butterfly">
            <g id="Butterfly">
                <g id="Group-3">
                    <mask id="mask-2" fill="white">
                        <use xlink:href="#path-1"></use>
                    </mask>
                    <g id="Clip-2"></g>
                    <path d="M37.2729147,38.1912285 L36.1578053,36.8025493 C36.1578053,36.8025493 33.159994,42.7700126 32.522243,45.720956 C31.8806732,48.6718994 32.9766883,52.4483354 31.8806732,56.5063648 C30.788477,60.5605367 25.2205675,63.9743732 25.2205675,63.9743732 C23.76176,64.1518155 21.3940619,62.9367212 21.3940619,62.9367212 C17.1131109,58.6819623 13.8136091,49.1347925 13.8136091,48.0277065 C13.8136091,46.9206205 13.1758581,44.8028847 12.8130657,43.4180629 C12.4464543,42.0370985 13.7257751,39.4564696 13.7257751,39.4564696 L16.387526,37.2114382 L20.0421826,35.2094256 L17.8196015,34.91626 C16.8572468,34.5420881 14.9019864,33.7088805 14.0885675,32.8178113 C12.9963713,31.6220042 13.4508166,30.5149182 13.3591638,29.5004109 C13.2675109,28.4859036 12.2631487,27.016218 11.8087034,25.6313962 C11.3504392,24.2504319 11.9920091,22.0401174 11.9920091,20.0072453 C11.9920091,17.9820881 10.9876468,16.5085451 9.70832604,13.8353375 C8.43282415,11.16213 7.79125434,4.15701468 8.7956166,3.60154298 C9.80379774,3.05378616 13.1758581,3.97185744 13.1758581,3.97185744 C16.5517374,5.26410063 22.7115713,7.60942558 27.867043,14.8459874 C32.9461374,21.9745409 35.4818657,29.7009979 35.4818657,29.7009979 L36.4098506,27.6912704 C35.7415487,27.2630943 35.2603713,25.446239 35.2603713,25.446239 C35.2603713,25.446239 30.23856,11.2547086 19.9276166,4.61605031 C9.62049208,-2.01875052 0.676703396,0.835756813 0.126786415,2.9573501 C-0.419311698,5.0789434 0.860009057,6.92280084 2.77708075,8.67407966 C4.69033358,10.4253585 7.70342038,14.2017945 7.60794868,16.2308092 C7.52011472,18.2559665 9.16222792,19.9185241 8.7956166,20.929174 C8.43282415,21.9436813 7.88672604,23.2359245 8.70778264,25.3536604 C9.52502038,27.4752537 8.61231094,28.6710608 9.8916317,31.8071614 C11.1709525,34.9394046 15.0432845,35.483304 15.0432845,35.483304 C15.0432845,35.483304 11.5948468,37.7669099 10.4415487,39.6724864 C9.2844317,41.5742055 8.49392604,45.6322348 8.49392604,45.6322348 C8.49392604,45.6322348 9.61667321,46.7740377 9.70832604,47.8425493 C9.88399396,49.8561342 10.4950128,50.8552117 11.529926,52.3326122 C12.5533826,53.7907254 11.3504392,56.1360503 12.4464543,56.8766792 C13.5424694,57.6095933 14.0885675,58.4428008 13.8136091,59.8237652 C13.5424694,61.208587 14.1802204,62.4969727 15.551194,62.5895514 C16.9183487,62.68213 17.1016543,64.0630943 17.4644468,65.1701803 C17.8310581,66.2734088 18.8354204,67.2879161 20.0192694,66.7363019 C21.2069374,66.1846876 22.2112996,67.1027589 23.5784543,67.6582306 C24.9456091,68.2098449 25.8621374,67.1027589 25.8621374,67.1027589 C25.8621374,67.1027589 29.1425449,63.7892159 30.9717826,62.0379371 C32.7933826,60.2866583 36.1692619,50.8822138 36.627526,48.6718994 C37.0819713,46.4615849 36.4785902,39.059153 36.4785902,39.059153 L37.2729147,38.1912285 Z" id="Fill-1" fill="#1D71B8" mask="url(#mask-2)"></path>
                </g>
                <g id="Group-6" transform="translate(41.660377, 0.000000)">
                    <mask id="mask-4" fill="white">
                        <use xlink:href="#path-3"></use>
                    </mask>
                    <g id="Clip-5"></g>
                    <path d="M37.0585468,2.95812159 C36.5131746,0.836528302 27.6470889,-2.01797904 17.4213599,4.6168218 C7.19563087,11.2516226 2.21910943,25.4470105 2.21910943,25.4470105 C2.21910943,25.4470105 1.74190875,27.2638658 1.07534271,27.6920419 L1.99565832,29.7017694 C1.99565832,29.7017694 4.51043019,21.9753124 9.54754854,14.8467589 C14.6642003,7.61019706 20.7693393,5.26487212 24.1173187,3.97262893 C24.1173187,3.97262893 27.4652981,3.05070021 28.4613599,3.60231447 C29.4574216,4.15778616 28.821154,11.1629015 27.5561935,13.8322516 C26.2874456,16.5093166 25.2951712,17.9828595 25.2951712,20.0080168 C25.2951712,22.0370314 25.9314388,24.2512034 25.4731746,25.6321677 C25.0224851,27.0131321 24.0302106,28.4866751 23.935528,29.5011824 C23.8484199,30.5156897 24.2991094,31.6227757 23.2159396,32.8185828 C22.4092432,33.709652 20.4625674,34.5428595 19.508166,34.9170314 L17.3191026,35.2063396 L20.9170443,37.2006373 L23.5719465,39.4572411 C23.5719465,39.4572411 24.8406943,42.03787 24.4809002,43.4188344 C24.1173187,44.8036562 23.4848384,46.9175346 23.4848384,48.028478 C23.4848384,49.1355639 20.2163925,58.6788763 15.9708213,62.9374927 C15.9708213,62.9374927 13.6226909,64.152587 12.1759396,63.9712872 C12.1759396,63.9712872 6.65404597,60.5613082 5.57087616,56.5071363 C4.48013173,52.4491069 5.57087616,48.6726709 4.93460858,45.7217275 C4.3021283,42.7707841 1.32151767,36.7994633 1.32151767,36.7994633 L0.219411321,38.192 L1.00717118,39.0560671 C1.00717118,39.0560671 0.408776672,46.458499 0.859466209,48.6726709 C1.31394305,50.8829853 4.66192247,60.2835723 6.47225523,62.0348512 C8.28258799,63.7899874 11.539672,67.1035304 11.539672,67.1035304 C11.539672,67.1035304 12.4448384,68.2106164 13.8006943,67.6551447 C15.1603376,67.1035304 16.152612,66.1854591 17.3304645,66.7370734 C18.508317,67.2886876 19.5005914,66.2741803 19.8641729,65.1709518 C20.2277544,64.0638658 20.4095451,62.679044 21.765401,62.5903229 C23.1212569,62.4977442 23.7537372,61.2093585 23.4848384,59.8245367 C23.2159396,58.4435723 23.7537372,57.6103648 24.8406943,56.8774507 C25.9314388,56.1368218 24.7346497,53.7914969 25.7534353,52.3333836 C26.7760082,50.8559832 27.3781901,49.8569057 27.5561935,47.8433208 C27.6508762,46.7709518 28.7643444,45.6330063 28.7643444,45.6330063 C28.7643444,45.6330063 27.9803719,41.5749769 26.8328178,39.6732579 C25.6852638,37.7638239 22.2653256,35.4840755 22.2653256,35.4840755 C22.2653256,35.4840755 26.1056549,34.9401761 27.3744027,31.8079329 C28.6393633,28.6718323 27.7379842,27.4721677 28.5522552,25.3544319 C29.3665262,23.236696 28.821154,21.9444528 28.4613599,20.9299455 C28.1015657,19.9154382 29.7263204,18.2567379 29.6392123,16.2277233 C29.548317,14.202566 32.5365022,10.42613 34.4339431,8.67099371 C36.3351712,6.91971488 37.603919,5.07971488 37.0585468,2.95812159" id="Fill-4" fill="#E40426" mask="url(#mask-4)"></path>
                </g>
                <path d="M45.4876569,15.6824276 L45.4914803,15.6476218 C45.4914803,15.6476218 45.5373618,14.7117329 45.6597124,13.5902131 C45.782063,12.4764279 45.9961765,11.16541 46.2829357,10.5118347 C46.7455739,9.43672263 48.045549,6.67159629 48.7108304,5.27163023 C48.783476,5.28709947 48.8522982,5.31417064 48.9287674,5.31417064 C49.7087524,5.31417064 50.3396226,4.67993187 50.3396226,3.89486803 C50.3396226,3.10980419 49.7087524,2.47169811 48.9287674,2.47169811 C48.1526058,2.47169811 47.525559,3.10980419 47.525559,3.89486803 C47.525559,4.33187401 47.7320256,4.71087035 48.0417255,4.96998009 C47.3764442,6.37768077 46.084116,9.12347055 45.6100075,10.2140518 C44.9447261,11.7880468 44.7764941,15.338237 44.7650237,15.5702756 C44.7573768,15.6050814 44.6962015,15.8564565 44.5547336,16.312799 C44.4017954,16.80008 44.1609176,17.4961957 43.8168066,18.3044634 C43.1935832,19.7779084 42.1994847,21.6187477 40.777159,23.308762 C40.7695121,23.2894255 40.7656886,23.2700889 40.7542183,23.2507524 C40.4139307,22.4927597 39.0298396,22.1795076 39.0107223,22.1756403 L39.0107223,22.171773 L39.0068988,22.171773 L39.0030754,22.171773 L39.0030754,22.1756403 C38.9801347,22.1795076 37.6342781,22.4888924 37.2748732,23.2275485 C35.8869587,21.5646054 34.9081539,19.7547045 34.2925775,18.3044634 C33.9484665,17.4961957 33.7114122,16.80008 33.5584739,16.312799 C33.4170061,15.8564565 33.3558308,15.6050814 33.3481839,15.5702756 C33.3290666,15.338237 33.164658,11.7880468 32.4993766,10.2140518 C32.0252681,9.12347055 30.7367634,6.37768077 30.071482,4.96998009 C30.3811819,4.71087035 30.5876486,4.33187401 30.5876486,3.89486803 C30.5876486,3.10980419 29.9567783,2.47169811 29.1806167,2.47169811 C28.4044552,2.47169811 27.7735849,3.10980419 27.7735849,3.89486803 C27.7735849,4.67993187 28.4044552,5.31417064 29.1806167,5.31417064 C29.2609093,5.31417064 29.3259081,5.28709947 29.4023772,5.27163023 C30.0676585,6.67159629 31.3676336,9.43672263 31.8302718,10.5118347 C32.117031,11.16541 32.3311445,12.4764279 32.4534951,13.5902131 C32.5758457,14.7117329 32.6217272,15.6437545 32.6217272,15.6437545 L32.6255507,15.6824276 L32.6331976,15.713366 C32.6408445,15.7443045 33.7114122,20.3154644 37.0072313,24.0590201 C36.9001745,24.5772395 36.8734104,25.0258475 36.8734104,25.0258475 C36.8734104,25.0258475 37.5272213,26.3097942 37.255756,27.1838062 C36.9766437,28.0500835 35.8181365,28.3517337 35.8181365,28.3517337 L34.9655058,30.2621846 L34.3308121,30.5870386 C34.3308121,30.5870386 33.0920123,30.1036249 32.6102568,29.5119265 C32.6102568,29.5119265 33.3940653,30.8732195 33.1952456,31.3218274 C32.6676087,31.928995 31.2338127,33.2438803 28.327986,33.7079574 C28.327986,33.7079574 30.1403042,33.9670672 32.377026,34.6941213 C32.8396642,34.9338945 33.550827,35.1736677 34.1434627,35.3554313 C34.1969911,35.7189584 34.0555232,36.0167412 34.0555232,36.0167412 L33.550827,37.4089727 L35.210207,35.9935374 L35.638434,37.6178074 L36.6784141,38.8785503 L37.909567,47.8777796 L39.0030754,49.3280207 L39.0030754,49.3396226 L39.0068988,49.3357553 L39.0107223,49.3396226 L39.0107223,49.3280207 L40.1042307,47.8777796 L41.3277367,38.8785503 L42.3715402,37.6178074 L42.7959438,35.9935374 L44.4591472,37.4089727 L43.9582745,36.0167412 C43.9582745,36.0167412 43.8168066,35.7189584 43.8665115,35.351564 C44.5509101,35.1427293 45.4035409,34.852681 45.8279445,34.5858367 C47.8926108,33.9477306 49.521403,33.7079574 49.521403,33.7079574 C47.8390824,33.4411131 46.6729283,32.8842205 45.866179,32.3505318 C45.4532458,32.0218104 44.9676669,31.6196102 44.8109052,31.3566332 C44.5738509,30.9350965 45.3997174,29.5119265 45.3997174,29.5119265 C44.9179619,30.1036249 43.6753387,30.5870386 43.6753387,30.5870386 L43.0444685,30.2621846 L42.1918378,28.3517337 C42.1918378,28.3517337 41.0295071,28.0500835 40.7542183,27.1838062 C40.4789294,26.3097942 41.1327404,25.0258475 41.1327404,25.0258475 C41.1327404,25.0258475 41.1097997,24.6313819 41.0218602,24.1595701 C44.3865015,20.4005452 45.4723631,15.7443045 45.48001,15.713366 L45.4876569,15.6824276 Z" id="Fill-7" fill="#FFFFFF"></path>
            </g>
        </g>
    </g>
</svg>