<?xml version="1.0" encoding="UTF-8"?>
<svg width="362px" height="75px" viewBox="0 0 362 75" version="1.1" xmlns="http://www.w3.org/2000/svg" xmlns:xlink="http://www.w3.org/1999/xlink">
    <!-- Generator: Sketch 51.3 (57544) - http://www.bohemiancoding.com/sketch -->
    <title>wazz</title>
    <desc>Created with Sketch.</desc>
    <defs></defs>
    <g id="wazz" stroke="none" stroke-width="1" fill="none" fill-rule="evenodd">
        <path d="M49.9040792,11 L63.9557756,11 L60.8292732,33.19 L72.8434736,22.69 L81.9068177,33.19 L85.0333202,11 L99.0850166,11 L91.1809373,67 L70.0331343,42.5 L42,67 L49.9040792,11 Z M120.274194,39 L141.351739,39 L142.019194,34.31 L132.95585,23.81 L120.94165,34.31 L120.274194,39 Z M120.274194,39 L117.323338,60 L103.271641,60 L107.697926,28.5 L135.766189,4 L156.878863,28.5 L152.452579,60 L138.400882,60 L139.384501,53 L125.332805,53 L120.274194,39 Z M193.700553,25 L168.512887,25 L170.480124,11 L229.602637,11 L189.520173,46 L214.707839,46 L212.740601,60 L153.618089,60 L193.700553,25 Z M253.988575,25 L228.80091,25 L230.768147,11 L289.89066,11 L249.808196,46 L274.995861,46 L273.028624,60 L213.906111,60 L253.988575,25 Z M339.927189,44.11 L338.662536,53 L324.61084,53 L325.875493,44.11 L317.514733,48.555 L312.210218,36.445 L320.570977,32 L313.439741,27.555 L322.186922,15.445 L329.283029,19.89 L330.547682,11 L344.599378,11 L343.334725,19.89 L351.695485,15.445 L357,27.555 L348.639241,32 L355.770477,36.445 L347.023296,48.555 L339.927189,44.11 Z" id="wazz-*" fill="#FFFFFF"></path>
    </g>
</svg>